<mxfile host="app.diagrams.net" modified="2024-05-30T20:59:04.668Z" agent="Mozilla/5.0 (Windows NT 10.0; Win64; x64) AppleWebKit/537.36 (KHTML, like Gecko) Chrome/125.0.0.0 Safari/537.36" etag="YjRig5PbaoO4DqUr35F1" version="24.4.6" type="google">
  <diagram name="Page-1" id="zAw4_ZxwHbent9y99uno">
    <mxGraphModel grid="1" page="1" gridSize="10" guides="1" tooltips="1" connect="1" arrows="1" fold="1" pageScale="1" pageWidth="850" pageHeight="1100" math="0" shadow="0">
      <root>
        <mxCell id="0" />
        <mxCell id="1" parent="0" />
        <mxCell id="CDoMVL7T3Utcz1zTlhYC-30" style="rounded=0;orthogonalLoop=1;jettySize=auto;html=1;edgeStyle=orthogonalEdgeStyle;" edge="1" parent="1" source="CDoMVL7T3Utcz1zTlhYC-10" target="CDoMVL7T3Utcz1zTlhYC-51">
          <mxGeometry relative="1" as="geometry">
            <Array as="points">
              <mxPoint x="60" y="490" />
              <mxPoint x="60" y="490" />
            </Array>
          </mxGeometry>
        </mxCell>
        <mxCell id="CDoMVL7T3Utcz1zTlhYC-33" value="HTTP Request" style="edgeLabel;html=1;align=center;verticalAlign=middle;resizable=0;points=[];fontFamily=Helvetica;fontSize=16;fontColor=default;fontStyle=1;labelBackgroundColor=default;fillColor=none;gradientColor=none;" connectable="0" vertex="1" parent="CDoMVL7T3Utcz1zTlhYC-30">
          <mxGeometry x="-0.3908" y="-2" relative="1" as="geometry">
            <mxPoint x="-25" y="8" as="offset" />
          </mxGeometry>
        </mxCell>
        <mxCell id="CDoMVL7T3Utcz1zTlhYC-35" style="edgeStyle=orthogonalEdgeStyle;rounded=0;orthogonalLoop=1;jettySize=auto;html=1;" edge="1" parent="1" source="CDoMVL7T3Utcz1zTlhYC-10" target="CDoMVL7T3Utcz1zTlhYC-17">
          <mxGeometry relative="1" as="geometry">
            <Array as="points">
              <mxPoint x="-300" y="492.5" />
              <mxPoint x="-300" y="492.5" />
            </Array>
          </mxGeometry>
        </mxCell>
        <mxCell id="CDoMVL7T3Utcz1zTlhYC-37" value="www.foobar.com" style="edgeLabel;html=1;align=center;verticalAlign=middle;resizable=0;points=[];fontFamily=Helvetica;fontSize=16;fontColor=default;fontStyle=1;labelBackgroundColor=default;fillColor=none;gradientColor=none;" connectable="0" vertex="1" parent="CDoMVL7T3Utcz1zTlhYC-35">
          <mxGeometry x="-0.2844" relative="1" as="geometry">
            <mxPoint x="-17" y="10" as="offset" />
          </mxGeometry>
        </mxCell>
        <mxCell id="CDoMVL7T3Utcz1zTlhYC-10" value="user" style="image;points=[];aspect=fixed;html=1;align=center;shadow=0;dashed=0;image=img/lib/allied_telesis/computer_and_terminals/Personal_Computer.svg;imageBackground=none;" vertex="1" parent="1">
          <mxGeometry x="-230" y="420" width="77.48" height="105" as="geometry" />
        </mxCell>
        <mxCell id="CDoMVL7T3Utcz1zTlhYC-21" style="rounded=0;orthogonalLoop=1;jettySize=auto;html=1;edgeStyle=orthogonalEdgeStyle;" edge="1" parent="1" source="CDoMVL7T3Utcz1zTlhYC-17" target="CDoMVL7T3Utcz1zTlhYC-10">
          <mxGeometry relative="1" as="geometry">
            <Array as="points">
              <mxPoint x="-300" y="472.5" />
              <mxPoint x="-300" y="472.5" />
            </Array>
          </mxGeometry>
        </mxCell>
        <mxCell id="CDoMVL7T3Utcz1zTlhYC-38" value="8.8.8.8" style="edgeLabel;html=1;align=center;verticalAlign=middle;resizable=0;points=[];fontFamily=Helvetica;fontSize=16;fontColor=default;fontStyle=1;labelBackgroundColor=default;fillColor=none;gradientColor=none;" connectable="0" vertex="1" parent="CDoMVL7T3Utcz1zTlhYC-21">
          <mxGeometry x="-0.0867" y="3" relative="1" as="geometry">
            <mxPoint y="-7" as="offset" />
          </mxGeometry>
        </mxCell>
        <mxCell id="CDoMVL7T3Utcz1zTlhYC-17" value="" style="image;sketch=0;aspect=fixed;html=1;points=[];align=center;fontSize=12;image=img/lib/mscae/DNS.svg;" vertex="1" parent="1">
          <mxGeometry x="-430" y="442.5" width="80" height="80" as="geometry" />
        </mxCell>
        <mxCell id="CDoMVL7T3Utcz1zTlhYC-31" style="rounded=0;orthogonalLoop=1;jettySize=auto;html=1;edgeStyle=orthogonalEdgeStyle;" edge="1" parent="1" source="CDoMVL7T3Utcz1zTlhYC-51" target="CDoMVL7T3Utcz1zTlhYC-10">
          <mxGeometry relative="1" as="geometry">
            <Array as="points">
              <mxPoint x="130" y="470" />
              <mxPoint x="130" y="470" />
            </Array>
          </mxGeometry>
        </mxCell>
        <mxCell id="CDoMVL7T3Utcz1zTlhYC-34" value="HTTP Response" style="edgeLabel;html=1;align=center;verticalAlign=middle;resizable=0;points=[];fontStyle=1;fontSize=16;" connectable="0" vertex="1" parent="CDoMVL7T3Utcz1zTlhYC-31">
          <mxGeometry x="0.0317" y="3" relative="1" as="geometry">
            <mxPoint x="-89" y="-13" as="offset" />
          </mxGeometry>
        </mxCell>
        <mxCell id="CDoMVL7T3Utcz1zTlhYC-29" value="Server" style="points=[[0,0],[0.25,0],[0.5,0],[0.75,0],[1,0],[1,0.25],[1,0.5],[1,0.75],[1,1],[0.75,1],[0.5,1],[0.25,1],[0,1],[0,0.75],[0,0.5],[0,0.25]];outlineConnect=0;gradientColor=none;html=1;whiteSpace=wrap;fontSize=12;fontStyle=0;container=1;pointerEvents=0;collapsible=0;recursiveResize=0;shape=mxgraph.aws4.group;grIcon=mxgraph.aws4.group_on_premise;strokeColor=#7D8998;fillColor=none;verticalAlign=top;align=left;spacingLeft=30;fontColor=#5A6C86;dashed=0;" vertex="1" parent="1">
          <mxGeometry x="410" y="60" width="420" height="400" as="geometry" />
        </mxCell>
        <mxCell id="CDoMVL7T3Utcz1zTlhYC-2" value="&lt;span style=&quot;color: rgb(51, 51, 51); font-family: aktiv-grotesk, sans-serif; text-align: left; text-wrap: wrap;&quot;&gt;&lt;b style=&quot;&quot;&gt;&lt;font style=&quot;font-size: 16px;&quot;&gt;web server (Nginx)&lt;/font&gt;&lt;/b&gt;&lt;/span&gt;" style="image;aspect=fixed;perimeter=ellipsePerimeter;html=1;align=center;shadow=0;dashed=0;spacingTop=3;image=img/lib/active_directory/web_server.svg;" vertex="1" parent="CDoMVL7T3Utcz1zTlhYC-29">
          <mxGeometry x="30" y="170" width="80" height="100" as="geometry" />
        </mxCell>
        <mxCell id="CDoMVL7T3Utcz1zTlhYC-3" value="&lt;span style=&quot;color: rgb(51, 51, 51); font-family: aktiv-grotesk, sans-serif; text-align: left; text-wrap: wrap;&quot;&gt;&lt;b style=&quot;&quot;&gt;&lt;font style=&quot;font-size: 16px;&quot;&gt;database (MySQL)&lt;/font&gt;&lt;/b&gt;&lt;/span&gt;" style="aspect=fixed;html=1;align=center;fontSize=12;image=img/lib/azure2/databases/SQL_Server.svg;shape=image;labelBackgroundColor=default;verticalAlign=top;verticalLabelPosition=bottom;points=[];" vertex="1" parent="CDoMVL7T3Utcz1zTlhYC-29">
          <mxGeometry x="300" y="20" width="75" height="100" as="geometry" />
        </mxCell>
        <mxCell id="CDoMVL7T3Utcz1zTlhYC-6" value="&lt;span style=&quot;color: rgb(51, 51, 51); font-family: aktiv-grotesk, sans-serif; text-align: left; text-wrap: wrap;&quot;&gt;&lt;b style=&quot;&quot;&gt;&lt;font style=&quot;font-size: 16px;&quot;&gt;application files&lt;/font&gt;&lt;/b&gt;&lt;/span&gt;" style="image;aspect=fixed;html=1;points=[];align=center;fontSize=12;image=img/lib/azure2/general/Files.svg;" vertex="1" parent="CDoMVL7T3Utcz1zTlhYC-29">
          <mxGeometry x="226" y="170" width="64" height="70" as="geometry" />
        </mxCell>
        <mxCell id="CDoMVL7T3Utcz1zTlhYC-25" style="rounded=0;orthogonalLoop=1;jettySize=auto;html=1;strokeColor=default;align=center;verticalAlign=middle;fontFamily=Helvetica;fontSize=11;fontColor=default;labelBackgroundColor=default;endArrow=classic;" edge="1" parent="CDoMVL7T3Utcz1zTlhYC-29" source="CDoMVL7T3Utcz1zTlhYC-6" target="CDoMVL7T3Utcz1zTlhYC-3">
          <mxGeometry relative="1" as="geometry" />
        </mxCell>
        <mxCell id="CDoMVL7T3Utcz1zTlhYC-4" value="&lt;span style=&quot;color: rgb(51, 51, 51); font-family: aktiv-grotesk, sans-serif; text-align: left; text-wrap: wrap;&quot;&gt;&lt;b style=&quot;&quot;&gt;&lt;font style=&quot;font-size: 16px;&quot;&gt;application server&lt;/font&gt;&lt;/b&gt;&lt;/span&gt;" style="image;aspect=fixed;perimeter=ellipsePerimeter;html=1;align=center;shadow=0;dashed=0;spacingTop=3;image=img/lib/active_directory/windows_server.svg;" vertex="1" parent="CDoMVL7T3Utcz1zTlhYC-29">
          <mxGeometry x="120" y="60" width="82" height="100" as="geometry" />
        </mxCell>
        <mxCell id="CDoMVL7T3Utcz1zTlhYC-23" style="rounded=0;orthogonalLoop=1;jettySize=auto;html=1;startArrow=classic;startFill=1;" edge="1" parent="CDoMVL7T3Utcz1zTlhYC-29" source="CDoMVL7T3Utcz1zTlhYC-2" target="CDoMVL7T3Utcz1zTlhYC-4">
          <mxGeometry relative="1" as="geometry" />
        </mxCell>
        <mxCell id="CDoMVL7T3Utcz1zTlhYC-24" style="rounded=0;orthogonalLoop=1;jettySize=auto;html=1;strokeColor=default;align=center;verticalAlign=middle;fontFamily=Helvetica;fontSize=11;fontColor=default;labelBackgroundColor=default;endArrow=classic;startArrow=classic;startFill=1;" edge="1" parent="CDoMVL7T3Utcz1zTlhYC-29" source="CDoMVL7T3Utcz1zTlhYC-3" target="CDoMVL7T3Utcz1zTlhYC-4">
          <mxGeometry relative="1" as="geometry" />
        </mxCell>
        <mxCell id="CDoMVL7T3Utcz1zTlhYC-26" style="rounded=0;orthogonalLoop=1;jettySize=auto;html=1;" edge="1" parent="CDoMVL7T3Utcz1zTlhYC-29" source="CDoMVL7T3Utcz1zTlhYC-6" target="CDoMVL7T3Utcz1zTlhYC-4">
          <mxGeometry relative="1" as="geometry" />
        </mxCell>
        <mxCell id="CDoMVL7T3Utcz1zTlhYC-66" value="&lt;span style=&quot;color: rgb(51, 51, 51); font-family: aktiv-grotesk, sans-serif; text-align: left; text-wrap: wrap; background-color: rgb(255, 255, 255);&quot;&gt;&lt;b style=&quot;&quot;&gt;&lt;font style=&quot;font-size: 16px;&quot;&gt;monitoring client&lt;/font&gt;&lt;/b&gt;&lt;/span&gt;" style="sketch=0;aspect=fixed;pointerEvents=1;shadow=0;dashed=0;html=1;strokeColor=none;labelPosition=center;verticalLabelPosition=bottom;verticalAlign=top;align=center;fillColor=#00188D;shape=mxgraph.mscae.enterprise.performance_monitor" vertex="1" parent="CDoMVL7T3Utcz1zTlhYC-29">
          <mxGeometry x="350" y="320" width="50" height="36" as="geometry" />
        </mxCell>
        <mxCell id="CDoMVL7T3Utcz1zTlhYC-40" value="Server" style="points=[[0,0],[0.25,0],[0.5,0],[0.75,0],[1,0],[1,0.25],[1,0.5],[1,0.75],[1,1],[0.75,1],[0.5,1],[0.25,1],[0,1],[0,0.75],[0,0.5],[0,0.25]];outlineConnect=0;gradientColor=none;html=1;whiteSpace=wrap;fontSize=12;fontStyle=0;container=1;pointerEvents=0;collapsible=0;recursiveResize=0;shape=mxgraph.aws4.group;grIcon=mxgraph.aws4.group_on_premise;strokeColor=#7D8998;fillColor=none;verticalAlign=top;align=left;spacingLeft=30;fontColor=#5A6C86;dashed=0;" vertex="1" parent="1">
          <mxGeometry x="410" y="490" width="420" height="400" as="geometry" />
        </mxCell>
        <mxCell id="CDoMVL7T3Utcz1zTlhYC-41" value="&lt;span style=&quot;color: rgb(51, 51, 51); font-family: aktiv-grotesk, sans-serif; text-align: left; text-wrap: wrap;&quot;&gt;&lt;b style=&quot;&quot;&gt;&lt;font style=&quot;font-size: 16px;&quot;&gt;web server (Nginx)&lt;/font&gt;&lt;/b&gt;&lt;/span&gt;" style="image;aspect=fixed;perimeter=ellipsePerimeter;html=1;align=center;shadow=0;dashed=0;spacingTop=3;image=img/lib/active_directory/web_server.svg;" vertex="1" parent="CDoMVL7T3Utcz1zTlhYC-40">
          <mxGeometry x="30" y="170" width="80" height="100" as="geometry" />
        </mxCell>
        <mxCell id="CDoMVL7T3Utcz1zTlhYC-42" value="&lt;span style=&quot;color: rgb(51, 51, 51); font-family: aktiv-grotesk, sans-serif; text-align: left; text-wrap: wrap;&quot;&gt;&lt;b style=&quot;&quot;&gt;&lt;font style=&quot;font-size: 16px;&quot;&gt;database (MySQL)&lt;/font&gt;&lt;/b&gt;&lt;/span&gt;" style="aspect=fixed;html=1;align=center;fontSize=12;image=img/lib/azure2/databases/SQL_Server.svg;shape=image;labelBackgroundColor=default;verticalAlign=top;verticalLabelPosition=bottom;points=[];" vertex="1" parent="CDoMVL7T3Utcz1zTlhYC-40">
          <mxGeometry x="300" y="20" width="75" height="100" as="geometry" />
        </mxCell>
        <mxCell id="CDoMVL7T3Utcz1zTlhYC-43" value="&lt;span style=&quot;color: rgb(51, 51, 51); font-family: aktiv-grotesk, sans-serif; text-align: left; text-wrap: wrap;&quot;&gt;&lt;b style=&quot;&quot;&gt;&lt;font style=&quot;font-size: 16px;&quot;&gt;application files&lt;/font&gt;&lt;/b&gt;&lt;/span&gt;" style="image;aspect=fixed;html=1;points=[];align=center;fontSize=12;image=img/lib/azure2/general/Files.svg;" vertex="1" parent="CDoMVL7T3Utcz1zTlhYC-40">
          <mxGeometry x="226" y="170" width="64" height="70" as="geometry" />
        </mxCell>
        <mxCell id="CDoMVL7T3Utcz1zTlhYC-44" style="rounded=0;orthogonalLoop=1;jettySize=auto;html=1;strokeColor=default;align=center;verticalAlign=middle;fontFamily=Helvetica;fontSize=11;fontColor=default;labelBackgroundColor=default;endArrow=classic;" edge="1" parent="CDoMVL7T3Utcz1zTlhYC-40" source="CDoMVL7T3Utcz1zTlhYC-43" target="CDoMVL7T3Utcz1zTlhYC-42">
          <mxGeometry relative="1" as="geometry" />
        </mxCell>
        <mxCell id="CDoMVL7T3Utcz1zTlhYC-45" value="&lt;span style=&quot;color: rgb(51, 51, 51); font-family: aktiv-grotesk, sans-serif; text-align: left; text-wrap: wrap;&quot;&gt;&lt;b style=&quot;&quot;&gt;&lt;font style=&quot;font-size: 16px;&quot;&gt;application server&lt;/font&gt;&lt;/b&gt;&lt;/span&gt;" style="image;aspect=fixed;perimeter=ellipsePerimeter;html=1;align=center;shadow=0;dashed=0;spacingTop=3;image=img/lib/active_directory/windows_server.svg;" vertex="1" parent="CDoMVL7T3Utcz1zTlhYC-40">
          <mxGeometry x="120" y="60" width="82" height="100" as="geometry" />
        </mxCell>
        <mxCell id="CDoMVL7T3Utcz1zTlhYC-46" style="rounded=0;orthogonalLoop=1;jettySize=auto;html=1;startArrow=classic;startFill=1;" edge="1" parent="CDoMVL7T3Utcz1zTlhYC-40" source="CDoMVL7T3Utcz1zTlhYC-41" target="CDoMVL7T3Utcz1zTlhYC-45">
          <mxGeometry relative="1" as="geometry" />
        </mxCell>
        <mxCell id="CDoMVL7T3Utcz1zTlhYC-47" style="rounded=0;orthogonalLoop=1;jettySize=auto;html=1;strokeColor=default;align=center;verticalAlign=middle;fontFamily=Helvetica;fontSize=11;fontColor=default;labelBackgroundColor=default;endArrow=classic;startArrow=classic;startFill=1;" edge="1" parent="CDoMVL7T3Utcz1zTlhYC-40" source="CDoMVL7T3Utcz1zTlhYC-42" target="CDoMVL7T3Utcz1zTlhYC-45">
          <mxGeometry relative="1" as="geometry" />
        </mxCell>
        <mxCell id="CDoMVL7T3Utcz1zTlhYC-48" style="rounded=0;orthogonalLoop=1;jettySize=auto;html=1;" edge="1" parent="CDoMVL7T3Utcz1zTlhYC-40" source="CDoMVL7T3Utcz1zTlhYC-43" target="CDoMVL7T3Utcz1zTlhYC-45">
          <mxGeometry relative="1" as="geometry" />
        </mxCell>
        <mxCell id="CDoMVL7T3Utcz1zTlhYC-67" value="&lt;span style=&quot;color: rgb(51, 51, 51); font-family: aktiv-grotesk, sans-serif; text-align: left; text-wrap: wrap; background-color: rgb(255, 255, 255);&quot;&gt;&lt;b style=&quot;&quot;&gt;&lt;font style=&quot;font-size: 16px;&quot;&gt;monitoring client&lt;/font&gt;&lt;/b&gt;&lt;/span&gt;" style="sketch=0;aspect=fixed;pointerEvents=1;shadow=0;dashed=0;html=1;strokeColor=none;labelPosition=center;verticalLabelPosition=bottom;verticalAlign=top;align=center;fillColor=#00188D;shape=mxgraph.mscae.enterprise.performance_monitor" vertex="1" parent="CDoMVL7T3Utcz1zTlhYC-40">
          <mxGeometry x="360" y="310" width="50" height="36" as="geometry" />
        </mxCell>
        <mxCell id="CDoMVL7T3Utcz1zTlhYC-52" style="rounded=0;orthogonalLoop=1;jettySize=auto;html=1;" edge="1" parent="1" source="CDoMVL7T3Utcz1zTlhYC-51" target="CDoMVL7T3Utcz1zTlhYC-29">
          <mxGeometry relative="1" as="geometry" />
        </mxCell>
        <mxCell id="CDoMVL7T3Utcz1zTlhYC-53" style="rounded=0;orthogonalLoop=1;jettySize=auto;html=1;" edge="1" parent="1" source="CDoMVL7T3Utcz1zTlhYC-51" target="CDoMVL7T3Utcz1zTlhYC-40">
          <mxGeometry relative="1" as="geometry" />
        </mxCell>
        <mxCell id="CDoMVL7T3Utcz1zTlhYC-51" value="&lt;span style=&quot;color: rgb(51, 51, 51); font-family: aktiv-grotesk, sans-serif; text-align: left; text-wrap: wrap; background-color: rgb(255, 255, 255);&quot;&gt;&lt;b style=&quot;&quot;&gt;&lt;font style=&quot;font-size: 16px;&quot;&gt;load-balancer (HAproxy)&lt;/font&gt;&lt;/b&gt;&lt;/span&gt;" style="fillColor=#28A8E0;verticalLabelPosition=bottom;sketch=0;html=1;strokeColor=#ffffff;verticalAlign=top;align=center;points=[[0.145,0.145,0],[0.5,0,0],[0.855,0.145,0],[1,0.5,0],[0.855,0.855,0],[0.5,1,0],[0.145,0.855,0],[0,0.5,0]];pointerEvents=1;shape=mxgraph.cisco_safe.compositeIcon;bgIcon=ellipse;resIcon=mxgraph.cisco_safe.capability.load_balancer;" vertex="1" parent="1">
          <mxGeometry x="200" y="440" width="80" height="80" as="geometry" />
        </mxCell>
        <mxCell id="CDoMVL7T3Utcz1zTlhYC-55" value="&lt;span style=&quot;color: rgb(51, 51, 51); font-family: aktiv-grotesk, sans-serif; text-align: left; text-wrap: wrap;&quot;&gt;&lt;b style=&quot;&quot;&gt;&lt;font style=&quot;font-size: 16px;&quot;&gt;Firewall&lt;/font&gt;&lt;/b&gt;&lt;/span&gt;" style="image;aspect=fixed;perimeter=ellipsePerimeter;html=1;align=center;shadow=0;dashed=0;spacingTop=3;image=img/lib/active_directory/firewall.svg;" vertex="1" parent="1">
          <mxGeometry x="330" y="380" width="42.7" height="70" as="geometry" />
        </mxCell>
        <mxCell id="CDoMVL7T3Utcz1zTlhYC-57" value="&lt;span style=&quot;color: rgb(51, 51, 51); font-family: aktiv-grotesk, sans-serif; text-align: left; text-wrap: wrap;&quot;&gt;&lt;b style=&quot;&quot;&gt;&lt;font style=&quot;font-size: 16px;&quot;&gt;Firewall&lt;/font&gt;&lt;/b&gt;&lt;/span&gt;" style="image;aspect=fixed;perimeter=ellipsePerimeter;html=1;align=center;shadow=0;dashed=0;spacingTop=3;image=img/lib/active_directory/firewall.svg;" vertex="1" parent="1">
          <mxGeometry x="330" y="500" width="42.7" height="70" as="geometry" />
        </mxCell>
        <mxCell id="CDoMVL7T3Utcz1zTlhYC-60" value="&lt;span style=&quot;color: rgb(51, 51, 51); font-family: aktiv-grotesk, sans-serif; text-align: left; text-wrap: wrap; background-color: rgb(255, 255, 255);&quot;&gt;&lt;b style=&quot;&quot;&gt;&lt;font style=&quot;font-size: 16px;&quot;&gt;SSL certificate&lt;/font&gt;&lt;/b&gt;&lt;/span&gt;" style="outlineConnect=0;dashed=0;verticalLabelPosition=bottom;verticalAlign=top;align=center;html=1;shape=mxgraph.aws3.ssl_padlock;fillColor=#D2D3D3;gradientColor=none;" vertex="1" parent="1">
          <mxGeometry x="110" y="433.5" width="63" height="78" as="geometry" />
        </mxCell>
        <mxCell id="CDoMVL7T3Utcz1zTlhYC-63" value="&lt;span style=&quot;color: rgb(51, 51, 51); font-family: aktiv-grotesk, sans-serif; text-align: left; text-wrap: wrap;&quot;&gt;&lt;b style=&quot;&quot;&gt;&lt;font style=&quot;font-size: 16px;&quot;&gt;Firewall&lt;/font&gt;&lt;/b&gt;&lt;/span&gt;" style="image;aspect=fixed;perimeter=ellipsePerimeter;html=1;align=center;shadow=0;dashed=0;spacingTop=3;image=img/lib/active_directory/firewall.svg;" vertex="1" parent="1">
          <mxGeometry x="30" y="440" width="42.7" height="70" as="geometry" />
        </mxCell>
        <mxCell id="CDoMVL7T3Utcz1zTlhYC-72" style="edgeStyle=orthogonalEdgeStyle;rounded=0;orthogonalLoop=1;jettySize=auto;html=1;" edge="1" parent="1" source="CDoMVL7T3Utcz1zTlhYC-68" target="CDoMVL7T3Utcz1zTlhYC-69">
          <mxGeometry relative="1" as="geometry">
            <Array as="points">
              <mxPoint x="190" y="608" />
              <mxPoint x="190" y="1000" />
            </Array>
          </mxGeometry>
        </mxCell>
        <mxCell id="CDoMVL7T3Utcz1zTlhYC-68" value="&lt;span style=&quot;color: rgb(51, 51, 51); font-family: aktiv-grotesk, sans-serif; text-align: left; text-wrap: wrap; background-color: rgb(255, 255, 255);&quot;&gt;&lt;b style=&quot;&quot;&gt;&lt;font style=&quot;font-size: 16px;&quot;&gt;monitoring client&lt;/font&gt;&lt;/b&gt;&lt;/span&gt;" style="sketch=0;aspect=fixed;pointerEvents=1;shadow=0;dashed=0;html=1;strokeColor=none;labelPosition=center;verticalLabelPosition=bottom;verticalAlign=top;align=center;fillColor=#00188D;shape=mxgraph.mscae.enterprise.performance_monitor" vertex="1" parent="1">
          <mxGeometry x="215" y="590" width="50" height="36" as="geometry" />
        </mxCell>
        <mxCell id="CDoMVL7T3Utcz1zTlhYC-69" value="&lt;span style=&quot;color: rgb(51, 51, 51); font-family: aktiv-grotesk, sans-serif; text-align: left; text-wrap: wrap;&quot;&gt;&lt;b style=&quot;&quot;&gt;&lt;font style=&quot;font-size: 16px;&quot;&gt;Sumologic&amp;nbsp;&lt;/font&gt;&lt;/b&gt;&lt;/span&gt;" style="editableCssRules=.*;html=1;shape=image;verticalLabelPosition=bottom;labelBackgroundColor=#ffffff;verticalAlign=top;aspect=fixed;imageAspect=0;image=data:image/svg+xml,PHN2ZyB4bWxucz0iaHR0cDovL3d3dy53My5vcmcvMjAwMC9zdmciIHhtbG5zOnY9Imh0dHBzOi8vdmVjdGEuaW8vbmFubyIgd2lkdGg9IjIwIiBoZWlnaHQ9IjEzLjUyOTk5OTczMjk3MTE5MSIgdmlld0JveD0iLTIuOTMyMDk3ODk3ODEyMDE0ZS05IC01LjI1ODAxNTA0MTgzNzk1NmUtMTUgMjAgMTMuNTI5OTk5NzMyOTcxMTkxIj4mI3hhOwk8c3R5bGUgdHlwZT0idGV4dC9jc3MiPiYjeGE7CS5zdDB7ZmlsbDojNDI4NWY0O30mI3hhOwkuc3Qxe2ZpbGw6IzY2OWRmNjt9JiN4YTsJPC9zdHlsZT4mI3hhOwk8cGF0aCBjbGFzcz0ic3QxIiBkPSJNOC44MyAxMC41OGgyLjMzdjIuNjRIOC44M3oiLz4mI3hhOwk8cGF0aCBjbGFzcz0ic3QwIiBkPSJNMTYuNDggOC42MWEuNTYuNTYgMCAwIDEtLjQtLjE3TDEyIDQuMjEgOS4yNiA3LjFhLjU3LjU3IDAgMCAxLS43Ni4wNUw2LjQyIDUuNDdsLTIuMiAyLjkyYS41Ni41NiAwIDAgMS0uNDUuMjJIMHYxLjcxYS43NS43NSAwIDAgMCAuNzQuNzVoMTguNTJhLjc1Ljc1IDAgMCAwIC43NC0uNzVWOC42MXoiLz4mI3hhOwk8cGF0aCBjbGFzcz0ic3QxIiBkPSJNMy41IDcuNWwyLjM4LTMuMTZhLjU1LjU1IDAgMCAxIC4zNy0uMjIuNjMuNjMgMCAwIDEgLjQyLjEybDIuMTIgMS43MiAyLjgtMi45NGEuNTQuNTQgMCAwIDEgLjQtLjE3aDBhLjU0LjU0IDAgMCAxIC40LjE3bDQuMzMgNC40OEgyMFYuNzRhLjc0Ljc0IDAgMCAwLS43NC0uNzRILjc0QS43NC43NCAwIDAgMCAwIC43NHY2LjgxeiIvPiYjeGE7CTxyZWN0IGNsYXNzPSJzdDAiIHg9IjYuNjciIHk9IjEyLjkyIiB3aWR0aD0iNi42NyIgaGVpZ2h0PSIuNjEiIHJ4PSIuMyIvPiYjeGE7PC9zdmc+;" vertex="1" parent="1">
          <mxGeometry x="541.4300000000001" y="940" width="157.14" height="110" as="geometry" />
        </mxCell>
        <mxCell id="CDoMVL7T3Utcz1zTlhYC-70" style="edgeStyle=orthogonalEdgeStyle;rounded=0;orthogonalLoop=1;jettySize=auto;html=1;" edge="1" parent="1" source="CDoMVL7T3Utcz1zTlhYC-66" target="CDoMVL7T3Utcz1zTlhYC-69">
          <mxGeometry relative="1" as="geometry">
            <Array as="points">
              <mxPoint x="960" y="398" />
              <mxPoint x="960" y="995" />
            </Array>
          </mxGeometry>
        </mxCell>
        <mxCell id="CDoMVL7T3Utcz1zTlhYC-71" style="edgeStyle=orthogonalEdgeStyle;rounded=0;orthogonalLoop=1;jettySize=auto;html=1;" edge="1" parent="1" source="CDoMVL7T3Utcz1zTlhYC-67" target="CDoMVL7T3Utcz1zTlhYC-69">
          <mxGeometry relative="1" as="geometry">
            <Array as="points">
              <mxPoint x="900" y="818" />
              <mxPoint x="900" y="980" />
            </Array>
          </mxGeometry>
        </mxCell>
      </root>
    </mxGraphModel>
  </diagram>
</mxfile>
